<?xml version="1.0" encoding="utf-8"?>
<!-- Generator: Adobe Illustrator 24.1.2, SVG Export Plug-In . SVG Version: 6.00 Build 0)  -->
<svg version="1.1" id="Layer_1" xmlns="http://www.w3.org/2000/svg" xmlns:xlink="http://www.w3.org/1999/xlink" x="0px" y="0px"
	 viewBox="0 0 50 50" style="enable-background:new 0 0 50 50;" xml:space="preserve">
<style type="text/css">
	.st0{fill:#48D339;}
</style>
<path class="st0" d="M43.6,46H6.4c-1.3,0-2.3-1.1-2.1-2.4l3.5-26.7c0.1-1.1,1-1.9,2.1-1.9h2.5C13.7,9.3,18.8,5,25,5
	s11.3,4.3,12.7,10h2.5c1.1,0,2,0.8,2.1,1.9l3.5,26.7C45.9,44.9,44.9,46,43.6,46z M28.7,9h-7.5c-0.5,0-0.9,0.2-1.2,0.6l-2.2,2.9
	c-0.8,1,0,2.5,1.2,2.5h11.9c1.3,0,2-1.4,1.2-2.5L30,9.6C29.7,9.2,29.2,9,28.7,9z"/>
</svg>
