<?xml version="1.0" encoding="utf-8"?>
<!-- Generator: Adobe Illustrator 24.1.2, SVG Export Plug-In . SVG Version: 6.00 Build 0)  -->
<svg version="1.1" id="Layer_1" xmlns="http://www.w3.org/2000/svg" xmlns:xlink="http://www.w3.org/1999/xlink" x="0px" y="0px"
	 viewBox="0 0 50 50" style="enable-background:new 0 0 50 50;" xml:space="preserve">
<style type="text/css">
	.st0{fill:#FFFFFF;}
	.st1{fill:url(#SVGID_1_);}
	.st2{fill:url(#SVGID_2_);}
</style>
<g>
	<path d="M40,47H10c-3.9,0-7-3.1-7-7V10c0-3.9,3.1-7,7-7h30c3.9,0,7,3.1,7,7v30C47,43.9,43.9,47,40,47z"/>
	<path class="st0" d="M12.2,24.5c-0.8,0-1.8,0.6-2.2,1.2c-0.2,0.4-0.6,0.8-0.9,0.8c-1,0.2-2.1,1.9-1.9,2.8c0.2,1.1,1.1,1.5,3.1,1.8
		c3.1,0.4,8.4,2.5,13.7,5.4c5.3,3,7.3,4,7.7,4c0.3,0,1.5,0.9,2.6,1.9c0.6,0.6,1.4,1.2,1.9,1.5c1.7,1,2.8,0.8,3.9-1
		c0.2-0.3,0.4-0.6,0.7-0.4c0.4,0.1,1.4-0.3,1.8-0.9c0.2-0.6,0.2-1.5-0.2-1.9c-0.7-0.7-1.2-0.8-4.2-1c-3.2-0.1-4.7-0.6-6.7-1.7
		c-0.6-0.3-1.5-0.8-2.1-1.1S27.2,34.7,26,34c-2.6-1.5-6.4-3.6-8-4.4c-1.5-0.9-2.9-2-3.7-3.3C13.5,25.1,12.9,24.5,12.2,24.5z
		 M11.4,28.6c0,0,0,0.1-0.1,0.2c-0.1,0.4,0,0.4,1.1,0.8c1.1,0.3,2.5,1,2.5,1.2c0,0.1-0.2,0-0.8-0.2c-0.3-0.1-1.2-0.4-1.9-0.6
		c-0.8-0.2-1.3-0.4-1.4-0.6c-0.1-0.1,0-0.3,0.2-0.6C11.3,28.7,11.4,28.6,11.4,28.6z M33.5,39.9c0.1,0,1.1,0.7,2.4,1.8
		c1.1,1,1.3,1,1.9,0.9c0.8-0.2,1.1,0,0.4,0.3s-0.9,0.3-2.5-1c-0.8-0.8-1.7-1.4-2-1.5C33.4,40.2,33.2,39.9,33.5,39.9z M39.9,40.2
		c0.1,0,0.1,0,0.2,0c0.2,0,0.4,0.1,0.4,0.2c0,0.3-0.3,0.3-0.7,0.1C39.6,40.2,39.6,40.2,39.9,40.2z"/>
	<path class="st0" d="M21.5,35.5l-1.8,0.9c-3.2,1.4-4.5,1.7-9.3,1.4c-1.2-0.1-1.7,0-2.3,0.3c-0.8,0.4-1,0.9-0.9,1.8
		c0.2,0.7,0.6,1,1.5,1.3c0.6,0.2,0.8,0.4,0.9,0.9c0.1,0.3,0.4,0.9,0.8,1.1c1.2,1,2.9,0.4,5.6-1.7c0.8-0.6,2-1.2,2.6-1.4
		c1-0.4,3-1.3,5.5-2.4l0.6-0.2l-0.9-0.6c-0.6-0.3-1.3-0.8-1.7-1L21.5,35.5z M10.2,38.9c0.1,0,0.2,0,0.2,0.1c0.1,0,0,0.2-0.1,0.3
		c-0.3,0.2-0.6,0.2-0.7,0S9.9,38.9,10.2,38.9z M11.3,40.3c0,0,0.2,0.2,0.4,0.6c0.4,0.9,0.6,1,1.4,0.7c0.4-0.1,0.4-0.1,0.1,0.3
		c-0.2,0.2-0.6,0.3-1,0.3c-0.6,0-0.7,0-0.8-0.8C11.3,40.8,11.2,40.4,11.3,40.3z"/>
	<path class="st0" d="M39,25.2c-0.2,0-0.4,0-0.6,0.1c-0.2,0.1-0.7,0.7-1.1,1.2c-1.2,1.8-2.5,2.8-5.3,4.1c-3.9,1.8-6,2.8-5.8,2.9
		c0,0.1,0.8,0.6,1.5,1l1.5,0.9l2-0.8c3-1.2,6.8-2.3,9-2.5c2.4-0.3,2.5-0.3,3.1-0.9c0.4-0.6,0.6-1.5,0-2.3c-0.1-0.3-0.7-0.9-1.2-1.2
		c-0.7-0.3-1-0.8-1-1C41.1,25.9,40,25.2,39,25.2z M39.8,29.3l0.1,0.6c0.2,0.6-0.2,1-0.9,1c-0.2,0-1,0.2-1.8,0.4
		c-0.7,0.1-1.2,0.2-1.2,0.2c0-0.2,0.4-0.4,2.1-0.8c1.3-0.3,1.4-0.3,1.5-0.9L39.8,29.3z"/>
	<path class="st0" d="M25.2,24.9c-0.1,0-0.2,0.1-0.2,0.4c0,0-0.1,0.7,0.1,0.6c0.2,0,0.7,0.2,0.6-0.4C25.7,25.1,25.5,24.9,25.2,24.9z
		"/>
	<path class="st0" d="M25,28.1c-0.1-0.6-0.1-0.9,0.3-0.9s0.6,0.2,0.3,0.8S25.2,28.5,25,28.1z"/>
	<path class="st0" d="M24.4,24.8c-0.1,0-0.3,0.3-0.3,0.7c0,0.1,0,0.4,0,0.6c0.1,0,0.3,0,0.4,0c0.2,0,0.1-0.7,0.1-0.9
		C24.6,24.9,24.5,24.8,24.4,24.8L24.4,24.8z"/>
	<path class="st0" d="M24.1,28.1c-0.2-0.2-0.1-0.9,0.1-0.9s0.3,0.2,0.3,0.6C24.6,28.2,24.4,28.3,24.1,28.1z"/>
	<path class="st0" d="M26.6,28.1c-0.2-0.3-0.1-0.9,0.3-0.9c0.2,0,0.3,0.1,0.3,0.4C27.1,28.1,26.8,28.3,26.6,28.1z"/>
	<path class="st0" d="M23.2,27.8c-0.2-0.2-0.1-0.7,0.2-0.7c0.1,0,0.2,0.2,0.2,0.4C23.6,28,23.4,28.1,23.2,27.8z"/>
	<path class="st0" d="M26,25.9c-0.2-0.2,0.1-1.1,0.3-1.1c0.3,0.1,0.4,1.1,0,1.2C26.2,26,26,26,26,25.9z"/>
	<path class="st0" d="M22.9,25.6c-0.1-0.4,0-0.9,0.4-0.9c0.1,0,0.2,0.2,0.2,0.6C23.6,26,23.2,26.2,22.9,25.6z"/>
	<path class="st0" d="M27,25.3c0-0.4,0.1-0.6,0.3-0.6c0.2,0.1,0.3,0.2,0.3,0.6s-0.1,0.6-0.3,0.6S27,25.8,27,25.3z"/>
	<path class="st0" d="M23.6,30.7c-1-0.3-1.1-0.4-2.3-1.9c-0.9-1.3-1-1.4-1.2-4.1c-0.1-1.5,0-1.7,1-0.8c0.6,0.6,0.7,0.8,0.9,2
		c0.2,2,1,2.6,3.4,2.6c1.9,0,2.6-0.3,3.1-1.3c0.1-0.3,0.3-0.9,0.3-1.1c0-1,0.4-1.9,1-2.2c0.3-0.2,0.7-0.3,0.8-0.3
		c0.2,0,0,3.5-0.3,4.1c-0.3,0.8-1.9,2.5-2.3,2.8C27.2,30.7,24.5,30.9,23.6,30.7z"/>
	<path class="st0" d="M25.2,7.6c-2.2,0.1-2.4,0.2-3.6,0.8c-1.3,0.7-2.9,2.1-3.5,3.5c-0.4,0.9-0.4,1.2-0.4,3.1s0,2.2,0.4,3
		c0.2,0.6,0.6,0.9,0.6,0.8c0.1,0,0.1-1,0.1-2.1c0-2,0-2.1,0.7-3.5c0.8-1.4,1.5-2.4,1.3-1.5s-0.7,1.8-1,2.6c-0.4,0.9-0.6,1.3-0.6,3
		c0,1.8,0,2.1-0.3,2.2c-0.7,0.2-0.9,0.4-0.9,0.8c-0.1,0.8,0.4,1.3,2,2c1.2,0.4,1.7,0.8,2,1.2c0.3,0.6,0.7,0.9,1.5,1.1
		c0.1,0.1,1.2,0.1,2.4,0.1l2.2-0.1l0.9-0.9c0.6-0.7,1.1-1.1,1.8-1.3c2.1-0.8,2.9-2.3,1.4-2.6l-0.8-0.2V18c0-1.3,0.1-1.9,0.4-1.9
		c0.1,0,0.1,0.6,0.1,1.2c0,1.4,0.2,1.5,0.9,0.7c0.6-0.8,0.7-4.2,0.2-5.7c-0.6-2-2.3-3.7-4.5-4.4C27.8,7.6,27.1,7.6,25.2,7.6z
		 M22.4,15.4c0.5,0,1,0.2,1.5,0.6c0.9,0.9,0.3,2.6-1.1,3.4c-1.7,0.9-2.5,0.1-2.4-1.7C20.5,16.4,21.4,15.5,22.4,15.4z M28.4,15.4
		c1,0,1.9,0.9,2,2.4c0.1,0.9,0.1,1-0.3,1.4c-1,1-2.3,0.6-3.1-0.9c-0.7-1-0.7-1.7,0-2.3C27.5,15.6,27.9,15.4,28.4,15.4z M25.5,18.7
		c0.2,0,0.8,2.2,0.8,3c0,0.4,0,0.4-0.4,0.1c-0.4-0.2-0.6-0.2-1,0c-0.6,0.4-0.7,0.3-0.6,0c0.1-0.2,0.1-0.7,0.2-1
		C24.7,19.9,25.2,18.7,25.5,18.7z"/>
</g>
<g>
	
		<radialGradient id="SVGID_1_" cx="25" cy="25" r="22" gradientTransform="matrix(6.123234e-17 -1 -4 -2.449294e-16 125 50)" gradientUnits="userSpaceOnUse">
		<stop  offset="0" style="stop-color:#000000;stop-opacity:0"/>
		<stop  offset="0.4944" style="stop-color:#070707;stop-opacity:1.629423e-02"/>
		<stop  offset="1" style="stop-color:#E2E2E2;stop-opacity:0.5"/>
	</radialGradient>
	<path class="st1" d="M40,47H10c-3.9,0-7-3.1-7-7V10c0-3.9,3.1-7,7-7h30c3.9,0,7,3.1,7,7v30C47,43.9,43.9,47,40,47z"/>
</g>
<linearGradient id="SVGID_2_" gradientUnits="userSpaceOnUse" x1="25" y1="11.7226" x2="25" y2="4.3623">
	<stop  offset="1.118836e-07" style="stop-color:#FFFFFF;stop-opacity:0"/>
	<stop  offset="0.2661" style="stop-color:#F1F1F1;stop-opacity:0.2395"/>
	<stop  offset="0.6231" style="stop-color:#E6E6E6;stop-opacity:0.5608"/>
	<stop  offset="1" style="stop-color:#E2E2E2;stop-opacity:0.9"/>
</linearGradient>
<path class="st2" d="M11.8,4.4h26.4c3.9,0,7,3.1,7,7v0.4H4.8v-0.4C4.8,7.5,7.9,4.4,11.8,4.4z"/>
</svg>
