<?xml version="1.0" encoding="utf-8"?>
<!-- Generator: Adobe Illustrator 24.1.2, SVG Export Plug-In . SVG Version: 6.00 Build 0)  -->
<svg version="1.1" id="Layer_1" xmlns="http://www.w3.org/2000/svg" xmlns:xlink="http://www.w3.org/1999/xlink" x="0px" y="0px"
	 viewBox="0 0 50 50" style="enable-background:new 0 0 50 50;" xml:space="preserve">
<style type="text/css">
	.st0{fill:#00236E;}
	.st1{fill:#FFFFFF;}
	.st2{fill:#D20023;}
	.st3{fill:url(#SVGID_1_);}
	.st4{fill:url(#SVGID_2_);}
</style>
<path class="st0" d="M40,47H10c-3.9,0-7-3.1-7-7V10c0-3.9,3.1-7,7-7h30c3.9,0,7,3.1,7,7v30C47,43.9,43.9,47,40,47z"/>
<path class="st1" d="M39.3,45.9L4,10.6C2.8,9.4,2.8,7.3,4,6l2-2c1.3-1.3,3.3-1.3,4.6,0L46,39.3c1.3,1.3,1.3,3.3,0,4.6l-2,2
	C42.7,47.2,40.6,47.2,39.3,45.9z"/>
<path class="st2" d="M22.2,21.5L6.9,6.3C6.2,5.6,5,5.6,4.3,6.3l0,0C3.6,7,3.6,8.2,4.3,8.9l15.3,15.3c0.7,0.7,1.9,0.7,2.6,0l0,0
	C22.9,23.4,22.9,22.3,22.2,21.5z"/>
<path class="st1" d="M4,39.3L39.3,4c1.3-1.3,3.3-1.3,4.6,0l2,2c1.3,1.3,1.3,3.3,0,4.6L10.7,45.9c-1.3,1.3-3.3,1.3-4.6,0l-2-2
	C2.8,42.7,2.8,40.6,4,39.3z"/>
<path class="st2" d="M8.8,45.8l16.1-16.1c0.6-0.6,0.6-1.7,0-2.3l-0.3-0.3c-0.6-0.6-1.7-0.6-2.3,0L6.2,43.2c-0.6,0.6-0.6,1.7,0,2.3
	l0.3,0.3C7.1,46.4,8.2,46.4,8.8,45.8z"/>
<path class="st2" d="M27.8,22.8L43.8,6.8c0.6-0.6,0.6-1.7,0-2.3l-0.3-0.3c-0.6-0.6-1.7-0.6-2.3,0L25.2,20.2c-0.6,0.6-0.6,1.7,0,2.3
	l0.3,0.3C26.1,23.5,27.1,23.5,27.8,22.8z"/>
<rect x="20.5" y="2.9" class="st1" width="9" height="44.1"/>
<path class="st2" d="M27.3,27.6l16.1,16.1c0.6,0.6,1.7,0.6,2.3,0l0.3-0.3c0.6-0.6,0.6-1.7,0-2.3L29.9,25c-0.6-0.6-1.7-0.6-2.3,0
	l-0.3,0.3C26.6,25.9,26.6,27,27.3,27.6z"/>
<rect x="3" y="20.3" class="st1" width="44" height="9.4"/>
<rect x="22.3" y="2.9" class="st2" width="5.4" height="44.1"/>
<rect x="3" y="22" class="st2" width="44" height="6"/>
<g>
	
		<radialGradient id="SVGID_1_" cx="25" cy="25" r="22" gradientTransform="matrix(6.123234e-17 -1 4 2.449294e-16 -75 50)" gradientUnits="userSpaceOnUse">
		<stop  offset="3.724391e-03" style="stop-color:#000000;stop-opacity:0"/>
		<stop  offset="0.5168" style="stop-color:#0022E9;stop-opacity:0.2"/>
		<stop  offset="1" style="stop-color:#E2E2E2;stop-opacity:0.5"/>
	</radialGradient>
	<path class="st3" d="M40,47H10c-3.9,0-7-3.1-7-7V10c0-3.9,3.1-7,7-7h30c3.9,0,7,3.1,7,7v30C47,43.9,43.9,47,40,47z"/>
</g>
<linearGradient id="SVGID_2_" gradientUnits="userSpaceOnUse" x1="25" y1="38.2774" x2="25" y2="45.6377" gradientTransform="matrix(1 0 0 -1 0 50)">
	<stop  offset="1.118836e-07" style="stop-color:#FFFFFF;stop-opacity:0"/>
	<stop  offset="0.1327" style="stop-color:#FFFFFF;stop-opacity:0.1327"/>
	<stop  offset="1" style="stop-color:#FFFFFF"/>
</linearGradient>
<path class="st4" d="M11.8,4.4h26.4c3.9,0,7,3.1,7,7v0.4H4.8v-0.4C4.8,7.5,7.9,4.4,11.8,4.4z"/>
</svg>
